<?xml version="1.0" encoding="UTF-8" standalone="no"?>
<svg
   height="30"
   viewBox="0 -960 1200 1200"
   width="30"
   version="1.1"
   id="svg1"
   sodipodi:docname="maskable.svg"
   inkscape:version="1.3.2 (091e20ef0f, 2023-11-25, custom)"
   xmlns:inkscape="http://www.inkscape.org/namespaces/inkscape"
   xmlns:sodipodi="http://sodipodi.sourceforge.net/DTD/sodipodi-0.dtd"
   xmlns="http://www.w3.org/2000/svg"
   xmlns:svg="http://www.w3.org/2000/svg">
  <defs
     id="defs1" />
  <sodipodi:namedview
     id="namedview1"
     pagecolor="#ffffff"
     bordercolor="#000000"
     borderopacity="0.25"
     inkscape:showpageshadow="2"
     inkscape:pageopacity="0.0"
     inkscape:pagecheckerboard="0"
     inkscape:deskcolor="#d1d1d1"
     inkscape:zoom="16.990566"
     inkscape:cx="9.7406995"
     inkscape:cy="13.036646"
     inkscape:window-width="1920"
     inkscape:window-height="1020"
     inkscape:window-x="0"
     inkscape:window-y="26"
     inkscape:window-maximized="1"
     inkscape:current-layer="svg1" />
  <rect
     style="fill:#ffffff;fill-opacity:1;stroke-width:40"
     id="rect1"
     width="440.85233"
     height="611.26123"
     x="379.57385"
     y="-665.63062" />
  <path
     d="M 576,-80 750,-420 H 630 V -640 L 450,-300 H 576 Z M 600,40 Q 517,40 444,8.5 371,-23 317,-77 263,-131 231.5,-204 200,-277 200,-360 q 0,-83 31.5,-156 31.5,-73 85.5,-127 54,-54 127,-85.5 73,-31.5 156,-31.5 83,0 156,31.5 73,31.5 127,85.5 54,54 85.5,127 31.5,73 31.5,156 0,83 -31.5,156 Q 937,-131 883,-77 829,-23 756,8.5 683,40 600,40 Z"
     fill="#0369a1"
     id="path1" />
</svg>
